<svg width="1692" height="679" viewBox="0 0 1692 679" fill="none" xmlns="http://www.w3.org/2000/svg">
<path d="M1290.33 522.773C1285.78 517.682 1283.69 508.273 1281.37 498.227C1279.1 488.227 1276.51 477.455 1268.28 470.5V470.455C1265.28 467.854 1261.85 465.793 1258.15 464.364C1269.6 430.5 1265.1 396.773 1253.6 366.318C1239.42 328.909 1214.74 296.318 1195.87 274.045C1174.78 247.409 1154.15 222.136 1154.51 184.818C1155.15 127.818 1160.78 22.1364 1060.51 22C1056.42 22 1052.19 22.1818 1047.78 22.5455C935.69 31.5455 965.418 149.955 963.736 189.591C961.691 218.591 955.827 241.409 935.872 269.773C912.463 297.636 879.509 342.682 863.872 389.636C856.509 411.773 852.963 434.364 856.236 455.727C855.191 456.636 854.236 457.591 853.327 458.591C846.463 465.909 841.372 474.818 835.691 480.818C830.418 486.091 822.872 488.091 814.6 491.045C806.281 494.045 797.191 498.409 791.691 509V509.045C789.25 513.807 788.047 519.106 788.191 524.455C788.191 529.364 788.918 534.318 789.645 539.091C791.191 549.091 792.736 558.5 790.691 564.864C784.145 582.818 783.281 595.182 787.918 604.182C792.554 613.227 802.009 617.182 812.781 619.409C834.281 623.955 863.418 622.818 886.372 634.955C910.918 647.818 935.872 652.364 955.736 647.864C962.681 646.5 969.207 643.517 974.783 639.157C980.359 634.798 984.828 629.184 987.827 622.773C1003.37 622.682 1020.42 616.136 1047.74 614.591C1066.28 613.136 1089.46 621.182 1116.05 619.727C1116.74 622.615 1117.78 625.408 1119.15 628.045L1119.19 628.091C1129.51 648.773 1148.74 658.182 1169.19 656.591C1189.65 654.955 1211.37 642.909 1228.96 621.955C1245.78 601.591 1273.6 593.182 1292.05 582.045C1301.28 576.455 1308.78 569.5 1309.33 559.364C1309.92 549.273 1303.96 537.955 1290.33 522.773Z" fill="#202020"/>
<path d="M886.372 634.955C863.418 622.818 834.281 623.955 812.781 619.409C802.009 617.182 792.554 613.227 787.918 604.182C783.281 595.182 784.145 582.818 790.691 564.864C792.736 558.5 791.191 549.091 789.645 539.091C788.918 534.318 788.191 529.364 788.191 524.455C788.047 519.106 789.25 513.807 791.691 509.045V509C797.191 498.409 806.281 494.045 814.6 491.045C822.872 488.091 830.418 486.091 835.691 480.818C841.372 474.818 846.463 465.909 853.327 458.591C854.236 457.591 855.191 456.636 856.236 455.727C852.963 434.364 856.509 411.773 863.872 389.636C879.509 342.682 912.463 297.636 935.872 269.773C955.827 241.409 961.691 218.591 963.736 189.591C965.418 149.955 935.69 31.5455 1047.78 22.5455C1052.19 22.1818 1056.42 22 1060.51 22C1160.78 22.1364 1155.15 127.818 1154.51 184.818C1154.15 222.136 1174.78 247.409 1195.87 274.045C1214.74 296.318 1239.42 328.909 1253.6 366.318C1265.1 396.773 1269.6 430.5 1258.15 464.364C1261.85 465.793 1265.28 467.854 1268.28 470.455V470.5C1276.51 477.455 1279.1 488.227 1281.37 498.227C1283.69 508.273 1285.78 517.682 1290.33 522.773C1303.96 537.955 1309.92 549.273 1309.33 559.364C1308.78 569.5 1301.28 576.455 1292.05 582.045C1273.6 593.182 1245.78 601.591 1228.96 621.955M886.372 634.955L888.327 631.227M886.372 634.955C910.918 647.818 935.872 652.364 955.736 647.864C962.681 646.5 969.207 643.517 974.783 639.157C980.359 634.798 984.828 629.184 987.827 622.773C1003.37 622.682 1020.42 616.136 1047.74 614.591C1066.28 613.136 1089.46 621.182 1116.05 619.727C1116.74 622.615 1117.78 625.408 1119.15 628.045L1119.19 628.091C1129.51 648.773 1148.74 658.182 1169.19 656.591C1189.65 654.955 1211.37 642.909 1228.96 621.955M1228.96 621.955L1225.78 619.227" stroke="#FDFCFC" stroke-width="43.6364" stroke-linecap="round" stroke-linejoin="round"/>
<path d="M1300.92 558.909C1300.6 565.136 1296.05 569.818 1287.74 574.818C1271.01 584.909 1241.42 593.636 1222.55 616.545C1206.1 636.091 1186.1 646.773 1168.46 648.182C1150.87 649.545 1135.69 642.273 1126.69 624.273V624.182C1121.1 613.591 1123.42 596.909 1128.1 579.318C1132.78 561.727 1139.51 543.636 1140.42 528.954C1141.33 510.091 1142.42 493.636 1145.6 480.954C1148.78 468.227 1153.74 459.682 1162.55 454.818C1162.96 454.599 1163.37 454.387 1163.78 454.182C1164.78 470.5 1172.87 487.136 1187.14 490.727C1202.74 494.818 1225.24 481.454 1234.74 470.5L1240.28 470.318C1248.65 470.091 1255.6 470.591 1262.78 476.818C1268.28 481.454 1270.92 490.318 1273.19 500.136C1275.46 510 1277.28 520.727 1284.05 528.363C1297.1 542.909 1301.33 552.636 1300.92 558.909ZM983.69 605.045V605.182C982.145 624.954 970.963 635.727 953.872 639.636C936.736 643.545 913.509 639.636 890.327 627.545C864.645 613.909 834.1 615.273 814.554 611.182C804.736 609.136 798.327 606.045 795.418 600.363C792.509 594.636 792.418 584.682 798.645 567.636V567.591L798.69 567.5C801.781 558 799.509 547.591 798.009 537.818C796.509 528.091 795.781 519.182 799.1 513L799.145 512.954C803.418 504.727 809.69 501.773 817.463 499C825.19 496.182 834.418 494 841.69 486.727L841.736 486.682C848.463 479.545 853.6 470.636 859.509 464.318C864.509 459 869.509 455.454 877.009 455.409H877.236C878.652 455.422 880.065 455.544 881.463 455.773C891.463 457.273 900.145 464.273 908.554 475.636L932.781 519.773V519.818C939.236 533.273 952.827 548.091 964.372 563.182C975.918 578.318 984.827 593.454 983.69 605.045Z" fill="#F8BF11" stroke="#FDFCFC" stroke-width="43.6364" stroke-linecap="round" stroke-linejoin="round"/>
<path d="M1104.51 193.455C1102.55 189.637 1098.6 186.001 1091.78 183.228C1077.69 177.183 1071.6 176.774 1063.74 171.683C1051.01 163.455 1040.42 160.592 1031.65 160.592C1027.43 160.612 1023.26 161.334 1019.28 162.728C1008.55 166.365 1001.46 174.092 997.009 178.274C996.1 179.137 995.009 179.865 992.282 181.91C989.554 183.865 985.463 186.91 979.554 191.365C974.236 195.274 972.554 200.455 974.373 206.455C976.191 212.455 981.963 219.41 992.554 225.41C999.145 229.274 1003.69 234.501 1008.87 238.637C1011.48 240.801 1014.37 242.591 1017.46 243.955C1020.74 245.365 1024.55 246.319 1029.28 246.592C1040.55 247.274 1048.83 243.865 1056.1 239.728C1063.37 235.546 1069.55 230.455 1076.65 228.137C1091.19 223.592 1101.6 214.455 1104.87 205.728C1105.7 203.777 1106.09 201.67 1106.03 199.552C1105.97 197.434 1105.45 195.355 1104.51 193.455Z" fill="#D6A312" stroke="#FDFCFC" stroke-width="43.6364" stroke-linecap="round" stroke-linejoin="round"/>
<path d="M1067.6 214.909C1056.01 220.955 1042.51 228.273 1028.1 228.273C1013.74 228.273 1002.37 221.636 994.236 215.136C990.145 211.955 986.827 208.682 984.327 206.364C979.963 202.955 980.509 198.136 982.281 198.273C985.281 198.636 985.736 202.591 987.6 204.364C990.145 206.727 993.327 209.818 997.191 212.864C1004.92 219 1015.24 224.955 1028.1 224.955C1041.01 224.955 1056.01 217.409 1065.19 212.227C1070.42 209.318 1077.01 204.091 1082.42 200.136C1086.51 197.091 1086.37 193.455 1089.78 193.864C1093.19 194.273 1090.69 197.909 1085.92 202.046C1081.15 206.227 1073.65 211.773 1067.6 214.909Z" fill="#202020" stroke="#FDFCFC" stroke-width="43.6364" stroke-linecap="round" stroke-linejoin="round"/>
<path d="M1244.83 461.91C1243.25 461.862 1241.67 461.862 1240.1 461.91H1239.64C1243.64 449.319 1234.83 440.092 1211.42 429.501C1187.14 418.819 1167.78 419.865 1164.51 441.546C1164.28 442.683 1164.1 443.819 1164.01 445.001C1162.13 445.668 1160.3 446.489 1158.55 447.455C1147.1 453.683 1140.87 465.001 1137.42 478.91C1133.96 492.774 1132.96 509.546 1132.01 528.455C1131.42 537.91 1127.51 550.728 1123.55 564.365C1083.78 592.728 1028.55 605.001 981.645 573.001C978.463 568.001 974.827 563.001 971.054 558.092C968.659 554.963 966.235 551.857 963.781 548.774C967.957 548.886 972.109 548.111 975.963 546.501C977.889 545.693 979.631 544.503 981.084 543.003C982.537 541.503 983.671 539.724 984.418 537.774C987.281 530.046 984.418 519.228 975.236 506.864C966.1 494.455 950.6 480.501 927.827 466.501C911.1 456.046 901.736 443.319 897.372 429.501C892.963 415.637 893.554 400.637 896.918 385.865C903.418 357.455 920.1 329.819 930.69 312.501C933.554 310.41 931.736 316.41 919.963 338.274C909.418 358.274 889.645 404.41 916.69 440.455C917.418 414.819 923.509 388.637 933.827 364.228C948.781 330.274 980.1 271.455 982.554 224.546C983.872 225.455 988.236 228.455 990.236 229.546C995.963 232.955 1000.28 237.91 1005.87 242.41C1013.16 248.563 1022.47 251.801 1032.01 251.501C1042.92 251.501 1051.42 247.91 1058.46 243.865C1066.19 239.501 1072.28 234.592 1078.14 232.728C1090.42 228.865 1100.24 222.046 1105.78 214.092C1115.33 251.819 1137.6 306.228 1151.87 332.774C1159.46 346.865 1174.6 376.819 1181.1 412.865C1185.24 412.774 1189.78 413.319 1194.69 414.592C1211.74 370.365 1180.19 322.683 1165.78 309.41C1159.96 303.774 1159.64 301.228 1162.6 301.365C1178.19 315.183 1198.74 343.046 1206.24 374.455C1209.64 388.774 1210.33 403.819 1206.69 418.683C1208.51 419.455 1210.33 420.228 1212.14 421.137C1239.55 434.455 1249.69 446.046 1244.83 461.91Z" fill="white" stroke="#FDFCFC" stroke-width="43.6364" stroke-linecap="round" stroke-linejoin="round"/>
<path d="M1049.51 342.273C1024.24 342.364 999.554 353.683 978.691 374.819C957.782 395.91 941.691 425.819 932.418 460.637L935.191 462.364V462.546C956.554 476.092 971.782 489.728 981.191 502.455C991.145 515.91 995.554 529.001 991.327 540.364C989.095 546.105 984.683 550.729 979.054 553.228L977.191 553.91C980.554 558.319 983.827 562.864 986.873 567.546C1029.78 596.092 1079.69 585.546 1117.19 559.728C1120.83 547.092 1124.15 535.364 1124.6 528.001C1125.55 509.137 1126.51 492.001 1130.24 477.092C1133.96 462.092 1141.24 448.455 1154.96 440.955C1155.74 440.501 1156.51 440.273 1157.28 439.91C1157.52 438.466 1157.86 437.039 1158.28 435.637C1147.28 407.364 1131.42 383.819 1112.37 367.455C1093.28 351.092 1071.6 342.41 1049.55 342.273H1049.51ZM1157.24 440.228L1157.15 440.455V440.364L1157.19 440.182L1157.24 440.228Z" fill="#E6E6E6" stroke="#FDFCFC" stroke-width="43.6364" stroke-linecap="round" stroke-linejoin="round"/>
<path d="M1105.78 150.046C1105.98 160.802 1102.53 171.31 1096.01 179.864C1092.75 178.406 1089.44 177.042 1086.1 175.773L1080.33 173.727C1081.65 172.137 1084.19 170.318 1085.19 167.955C1086.63 164.447 1087.4 160.701 1087.46 156.909L1087.51 156.455C1087.62 152.813 1087.08 149.18 1085.92 145.727C1085 142.575 1083.32 139.7 1081.01 137.364C1080.09 136.393 1079 135.612 1077.78 135.066C1076.56 134.52 1075.25 134.22 1073.92 134.182H1073.6C1071.05 134.217 1068.61 135.188 1066.74 136.909C1064.25 139.058 1062.35 141.792 1061.19 144.864C1059.76 148.374 1058.99 152.119 1058.92 155.909V156.364C1058.85 158.493 1058.98 160.625 1059.33 162.727C1054.17 160.347 1048.78 158.519 1043.24 157.273C1042.97 155.268 1042.82 153.249 1042.78 151.227V150.637C1042.59 143.651 1043.96 136.71 1046.78 130.318C1049.19 124.433 1053.11 119.29 1058.15 115.409C1062.6 111.812 1068.15 109.84 1073.87 109.818H1074.15C1079.83 109.818 1084.69 111.455 1089.69 115.091C1094.84 118.86 1098.87 123.948 1101.37 129.818C1104.24 136.091 1105.65 142.227 1105.78 149.5L1105.83 150.046H1105.78ZM1019.87 157.5C1015.42 158.774 1011.18 160.688 1007.28 163.182C1007.59 160.921 1007.62 158.632 1007.37 156.364V156C1007.09 152.997 1006.36 150.054 1005.19 147.273C1004.26 144.826 1002.76 142.631 1000.83 140.864C1000.12 140.167 999.269 139.625 998.338 139.273C997.406 138.92 996.412 138.766 995.418 138.818C993.509 139 991.918 139.909 990.418 141.773C988.821 143.857 987.732 146.285 987.236 148.864C986.527 151.916 986.328 155.065 986.645 158.182V158.546C986.907 161.566 987.643 164.527 988.827 167.318C989.915 170.113 991.737 172.563 994.1 174.409L989.463 178.046L985.918 180.591C982.769 177.494 980.293 173.78 978.645 169.682C976.236 164.227 974.918 158.773 974.554 152.364V152.318C974.138 146.334 974.832 140.324 976.6 134.591C977.957 129.592 980.57 125.023 984.191 121.318C985.71 119.641 987.561 118.298 989.627 117.375C991.693 116.452 993.928 115.968 996.191 115.955C1000.01 115.955 1003.37 117.227 1006.87 120.046C1010.87 123.33 1013.98 127.565 1015.92 132.364C1018.33 137.818 1019.55 143.273 1019.96 149.727C1020.1 152.455 1020.1 155 1019.87 157.5Z" fill="white" stroke="#FDFCFC" stroke-width="43.6364" stroke-linecap="round" stroke-linejoin="round"/>
<path d="M1038.87 172.863C1039.33 174.409 1041.83 174.181 1043.28 174.909C1044.51 175.545 1045.55 176.954 1046.92 177C1048.28 177.045 1050.37 176.545 1050.55 175.181C1050.78 173.454 1048.19 172.318 1046.55 171.681C1044.42 170.818 1041.69 170.409 1039.69 171.545C1039.24 171.772 1038.74 172.318 1038.87 172.863ZM1024.24 172.863C1023.78 174.409 1021.28 174.181 1019.87 174.909C1018.6 175.545 1017.6 176.954 1016.19 177C1014.83 177.045 1012.74 176.545 1012.55 175.181C1012.33 173.454 1014.92 172.318 1016.55 171.681C1018.69 170.818 1021.46 170.409 1023.46 171.545C1023.92 171.772 1024.37 172.318 1024.24 172.863Z" fill="#202020" stroke="#FDFCFC" stroke-width="43.6364" stroke-linecap="round" stroke-linejoin="round"/>
<path d="M1290.33 522.773C1285.78 517.682 1283.69 508.273 1281.37 498.227C1279.1 488.227 1276.51 477.455 1268.28 470.5V470.455C1265.28 467.854 1261.85 465.793 1258.15 464.364C1269.6 430.5 1265.1 396.773 1253.6 366.318C1239.42 328.909 1214.74 296.318 1195.87 274.045C1174.78 247.409 1154.15 222.136 1154.51 184.818C1155.15 127.818 1160.78 22.1364 1060.51 22C1056.42 22 1052.19 22.1818 1047.78 22.5455C935.69 31.5455 965.418 149.955 963.736 189.591C961.691 218.591 955.827 241.409 935.872 269.773C912.463 297.636 879.509 342.682 863.872 389.636C856.509 411.773 852.963 434.364 856.236 455.727C855.191 456.636 854.236 457.591 853.327 458.591C846.463 465.909 841.372 474.818 835.691 480.818C830.418 486.091 822.872 488.091 814.6 491.045C806.281 494.045 797.191 498.409 791.691 509V509.045C789.25 513.807 788.047 519.106 788.191 524.455C788.191 529.364 788.918 534.318 789.645 539.091C791.191 549.091 792.736 558.5 790.691 564.864C784.145 582.818 783.281 595.182 787.918 604.182C792.554 613.227 802.009 617.182 812.781 619.409C834.281 623.955 863.418 622.818 886.372 634.955C910.918 647.818 935.872 652.364 955.736 647.864C962.681 646.5 969.207 643.517 974.783 639.157C980.359 634.798 984.828 629.184 987.827 622.773C1003.37 622.682 1020.42 616.136 1047.74 614.591C1066.28 613.136 1089.46 621.182 1116.05 619.727C1116.74 622.615 1117.78 625.408 1119.15 628.045L1119.19 628.091C1129.51 648.773 1148.74 658.182 1169.19 656.591C1189.65 654.955 1211.37 642.909 1228.96 621.955C1245.78 601.591 1273.6 593.182 1292.05 582.045C1301.28 576.455 1308.78 569.5 1309.33 559.364C1309.92 549.273 1303.96 537.955 1290.33 522.773Z" fill="#202020"/>
<path d="M1300.92 558.909C1300.6 565.136 1296.05 569.818 1287.74 574.818C1271.01 584.909 1241.42 593.636 1222.55 616.545C1206.1 636.091 1186.1 646.773 1168.46 648.182C1150.87 649.545 1135.69 642.273 1126.69 624.273V624.182C1121.1 613.591 1123.42 596.909 1128.1 579.318C1132.78 561.727 1139.51 543.636 1140.42 528.954C1141.33 510.091 1142.42 493.636 1145.6 480.954C1148.78 468.227 1153.74 459.682 1162.55 454.818C1162.96 454.599 1163.37 454.387 1163.78 454.182C1164.78 470.5 1172.87 487.136 1187.14 490.727C1202.74 494.818 1225.24 481.454 1234.74 470.5L1240.28 470.318C1248.65 470.091 1255.6 470.591 1262.78 476.818C1268.28 481.454 1270.92 490.318 1273.19 500.136C1275.46 510 1277.28 520.727 1284.05 528.363C1297.1 542.909 1301.33 552.636 1300.92 558.909ZM983.69 605.045V605.182C982.145 624.954 970.963 635.727 953.872 639.636C936.736 643.545 913.509 639.636 890.327 627.545C864.645 613.909 834.1 615.273 814.554 611.182C804.736 609.136 798.327 606.045 795.418 600.363C792.509 594.636 792.418 584.682 798.645 567.636V567.591L798.69 567.5C801.781 558 799.509 547.591 798.009 537.818C796.509 528.091 795.781 519.182 799.1 513L799.145 512.954C803.418 504.727 809.69 501.773 817.463 499C825.19 496.182 834.418 494 841.69 486.727L841.736 486.682C848.463 479.545 853.6 470.636 859.509 464.318C864.509 459 869.509 455.454 877.009 455.409H877.236C878.652 455.422 880.065 455.544 881.463 455.773C891.463 457.273 900.145 464.273 908.554 475.636L932.781 519.773V519.818C939.236 533.273 952.827 548.091 964.372 563.182C975.918 578.318 984.827 593.454 983.69 605.045Z" fill="#F8BF11"/>
<path d="M1104.51 193.455C1102.55 189.637 1098.6 186.001 1091.78 183.228C1077.69 177.183 1071.6 176.774 1063.74 171.683C1051.01 163.455 1040.42 160.592 1031.65 160.592C1027.43 160.612 1023.26 161.334 1019.28 162.728C1008.55 166.365 1001.46 174.092 997.009 178.274C996.1 179.137 995.009 179.865 992.282 181.91C989.554 183.865 985.463 186.91 979.554 191.365C974.236 195.274 972.554 200.455 974.373 206.455C976.191 212.455 981.963 219.41 992.554 225.41C999.145 229.274 1003.69 234.501 1008.87 238.637C1011.48 240.801 1014.37 242.591 1017.46 243.955C1020.74 245.365 1024.55 246.319 1029.28 246.592C1040.55 247.274 1048.83 243.865 1056.1 239.728C1063.37 235.546 1069.55 230.455 1076.65 228.137C1091.19 223.592 1101.6 214.455 1104.87 205.728C1105.7 203.777 1106.09 201.67 1106.03 199.552C1105.97 197.434 1105.45 195.355 1104.51 193.455Z" fill="#D6A312"/>
<path d="M1067.6 214.909C1056.01 220.955 1042.51 228.273 1028.1 228.273C1013.74 228.273 1002.37 221.636 994.236 215.136C990.145 211.955 986.827 208.682 984.327 206.364C979.963 202.955 980.509 198.136 982.281 198.273C985.281 198.636 985.736 202.591 987.6 204.364C990.145 206.727 993.327 209.818 997.191 212.864C1004.92 219 1015.24 224.955 1028.1 224.955C1041.01 224.955 1056.01 217.409 1065.19 212.227C1070.42 209.318 1077.01 204.091 1082.42 200.136C1086.51 197.091 1086.37 193.455 1089.78 193.864C1093.19 194.273 1090.69 197.909 1085.92 202.046C1081.15 206.227 1073.65 211.773 1067.6 214.909Z" fill="#202020"/>
<path d="M1244.83 461.91C1243.25 461.862 1241.67 461.862 1240.1 461.91H1239.64C1243.64 449.319 1234.83 440.092 1211.42 429.501C1187.14 418.819 1167.78 419.865 1164.51 441.546C1164.28 442.683 1164.1 443.819 1164.01 445.001C1162.13 445.668 1160.3 446.489 1158.55 447.455C1147.1 453.683 1140.87 465.001 1137.42 478.91C1133.96 492.774 1132.96 509.546 1132.01 528.455C1131.42 537.91 1127.51 550.728 1123.55 564.365C1083.78 592.728 1028.55 605.001 981.645 573.001C978.463 568.001 974.827 563.001 971.054 558.092C968.659 554.963 966.235 551.857 963.781 548.774C967.957 548.886 972.109 548.111 975.963 546.501C977.889 545.693 979.631 544.503 981.084 543.003C982.537 541.503 983.671 539.724 984.418 537.774C987.281 530.046 984.418 519.228 975.236 506.864C966.1 494.455 950.6 480.501 927.827 466.501C911.1 456.046 901.736 443.319 897.372 429.501C892.963 415.637 893.554 400.637 896.918 385.865C903.418 357.455 920.1 329.819 930.69 312.501C933.554 310.41 931.736 316.41 919.963 338.274C909.418 358.274 889.645 404.41 916.69 440.455C917.418 414.819 923.509 388.637 933.827 364.228C948.781 330.274 980.1 271.455 982.554 224.546C983.872 225.455 988.236 228.455 990.236 229.546C995.963 232.955 1000.28 237.91 1005.87 242.41C1013.16 248.563 1022.47 251.801 1032.01 251.501C1042.92 251.501 1051.42 247.91 1058.46 243.865C1066.19 239.501 1072.28 234.592 1078.14 232.728C1090.42 228.865 1100.24 222.046 1105.78 214.092C1115.33 251.819 1137.6 306.228 1151.87 332.774C1159.46 346.865 1174.6 376.819 1181.1 412.865C1185.24 412.774 1189.78 413.319 1194.69 414.592C1211.74 370.365 1180.19 322.683 1165.78 309.41C1159.96 303.774 1159.64 301.228 1162.6 301.365C1178.19 315.183 1198.74 343.046 1206.24 374.455C1209.64 388.774 1210.33 403.819 1206.69 418.683C1208.51 419.455 1210.33 420.228 1212.14 421.137C1239.55 434.455 1249.69 446.046 1244.83 461.91Z" fill="white"/>
<path d="M1049.51 342.273C1024.24 342.364 999.554 353.683 978.691 374.819C957.782 395.91 941.691 425.819 932.418 460.637L935.191 462.364V462.546C956.554 476.092 971.782 489.728 981.191 502.455C991.145 515.91 995.554 529.001 991.327 540.364C989.095 546.105 984.683 550.729 979.054 553.228L977.191 553.91C980.554 558.319 983.827 562.864 986.873 567.546C1029.78 596.092 1079.69 585.546 1117.19 559.728C1120.83 547.092 1124.15 535.364 1124.6 528.001C1125.55 509.137 1126.51 492.001 1130.24 477.092C1133.96 462.092 1141.24 448.455 1154.96 440.955C1155.74 440.501 1156.51 440.273 1157.28 439.91C1157.52 438.466 1157.86 437.039 1158.28 435.637C1147.28 407.364 1131.42 383.819 1112.37 367.455C1093.28 351.092 1071.6 342.41 1049.55 342.273H1049.51ZM1157.24 440.228L1157.15 440.455V440.364L1157.19 440.182L1157.24 440.228Z" fill="#E6E6E6"/>
<path d="M1105.78 150.046C1105.98 160.802 1102.53 171.31 1096.01 179.864C1092.75 178.406 1089.44 177.042 1086.1 175.773L1080.33 173.727C1081.65 172.137 1084.19 170.318 1085.19 167.955C1086.63 164.447 1087.4 160.701 1087.46 156.909L1087.51 156.455C1087.62 152.813 1087.08 149.18 1085.92 145.727C1085 142.575 1083.32 139.7 1081.01 137.364C1080.09 136.393 1079 135.612 1077.78 135.066C1076.56 134.52 1075.25 134.22 1073.92 134.182H1073.6C1071.05 134.217 1068.61 135.188 1066.74 136.909C1064.25 139.058 1062.35 141.792 1061.19 144.864C1059.76 148.374 1058.99 152.119 1058.92 155.909V156.364C1058.85 158.493 1058.98 160.625 1059.33 162.727C1054.17 160.347 1048.78 158.519 1043.24 157.273C1042.97 155.268 1042.82 153.249 1042.78 151.227V150.637C1042.59 143.651 1043.96 136.71 1046.78 130.318C1049.19 124.433 1053.11 119.29 1058.15 115.409C1062.6 111.812 1068.15 109.84 1073.87 109.818H1074.15C1079.83 109.818 1084.69 111.455 1089.69 115.091C1094.84 118.86 1098.87 123.948 1101.37 129.818C1104.24 136.091 1105.65 142.227 1105.78 149.5L1105.83 150.046H1105.78ZM1019.87 157.5C1015.42 158.774 1011.18 160.688 1007.28 163.182C1007.59 160.921 1007.62 158.632 1007.37 156.364V156C1007.09 152.997 1006.36 150.054 1005.19 147.273C1004.26 144.826 1002.76 142.631 1000.83 140.864C1000.12 140.167 999.269 139.625 998.338 139.273C997.406 138.92 996.412 138.766 995.418 138.818C993.509 139 991.918 139.909 990.418 141.773C988.821 143.857 987.732 146.285 987.236 148.864C986.527 151.916 986.328 155.065 986.645 158.182V158.546C986.907 161.566 987.643 164.527 988.827 167.318C989.915 170.113 991.737 172.563 994.1 174.409L989.463 178.046L985.918 180.591C982.769 177.494 980.293 173.78 978.645 169.682C976.236 164.227 974.918 158.773 974.554 152.364V152.318C974.138 146.334 974.832 140.324 976.6 134.591C977.957 129.592 980.57 125.023 984.191 121.318C985.71 119.641 987.561 118.298 989.627 117.375C991.693 116.452 993.928 115.968 996.191 115.955C1000.01 115.955 1003.37 117.227 1006.87 120.046C1010.87 123.33 1013.98 127.565 1015.92 132.364C1018.33 137.818 1019.55 143.273 1019.96 149.727C1020.1 152.455 1020.1 155 1019.87 157.5Z" fill="white"/>
<path d="M1038.87 172.863C1039.33 174.409 1041.83 174.181 1043.28 174.909C1044.51 175.545 1045.55 176.954 1046.92 177C1048.28 177.045 1050.37 176.545 1050.55 175.181C1050.78 173.454 1048.19 172.318 1046.55 171.681C1044.42 170.818 1041.69 170.409 1039.69 171.545C1039.24 171.772 1038.74 172.318 1038.87 172.863ZM1024.24 172.863C1023.78 174.409 1021.28 174.181 1019.87 174.909C1018.6 175.545 1017.6 176.954 1016.19 177C1014.83 177.045 1012.74 176.545 1012.55 175.181C1012.33 173.454 1014.92 172.318 1016.55 171.681C1018.69 170.818 1021.46 170.409 1023.46 171.545C1023.92 171.772 1024.37 172.318 1024.24 172.863Z" fill="#202020"/>
<path d="M5.2207 213.551C15.1417 214.429 38.0972 214.432 49.6992 214.432C61.9159 214.432 88.4249 214.43 98.9521 213.55L101.66 213.323V227.42H89.3916C82.475 227.42 77.3899 227.679 73.6455 228.201C69.8648 228.729 67.6914 229.495 66.4131 230.338C65.2733 231.09 64.7304 231.974 64.4229 233.249C64.0723 234.703 64.0576 236.518 64.0576 239.128V396.359C64.0576 398.834 64.1008 400.582 64.3311 401.904C64.5514 403.17 64.897 403.751 65.291 404.115C65.7276 404.519 66.5594 404.964 68.3545 405.275C70.1445 405.586 72.6117 405.718 76.0586 405.718H100.052C125.415 405.718 138.583 396.851 145.965 384.775C153.534 372.393 155.292 356.264 156.778 341.049L156.999 338.791H169.446L169.156 341.553L161.169 417.648L160.935 419.888H2.5V405.718H11.8047C17.4716 405.718 21.6425 405.513 24.7246 405.065C27.8373 404.614 29.5809 403.948 30.5986 403.218C31.4974 402.573 32.0066 401.752 32.3135 400.404C32.6513 398.92 32.6992 397.005 32.6992 394.285V238.836C32.6992 236.116 32.6512 234.202 32.3135 232.72C32.0069 231.374 31.4984 230.556 30.6006 229.913C29.5829 229.184 27.839 228.52 24.7256 228.069C21.6431 227.623 17.4719 227.42 11.8047 227.42H2.5V213.31L5.2207 213.551Z" fill="white" stroke="black" stroke-width="5"/>
<path d="M127.114 301.186H172.474L149.8 243.598L127.114 301.186ZM126.833 360.67H75.9355V348.267H78.4355C87.1837 348.267 92.033 346.087 94.9111 343.641C97.8383 341.153 99.0552 338.14 100.103 335.604L147.741 214.878C148.313 213.17 149.001 211.376 150.413 210.148C151.959 208.805 153.906 208.5 156.007 208.5C158.106 208.5 160.049 208.804 161.547 210.231C162.844 211.468 163.456 213.291 163.996 214.883L214.305 341.857L214.323 341.904L214.34 341.951C215.375 344.903 216.009 346.019 217.445 346.782C219.192 347.71 222.435 348.267 229.445 348.267H236.093V360.67H172.754V348.267H175.254C178.126 348.267 182.077 348.257 185.292 347.579C186.908 347.238 188.089 346.775 188.815 346.245C189.385 345.83 189.593 345.45 189.627 344.982C189.488 344.115 189.2 343.277 188.771 342.51L188.687 342.36L188.625 342.201L177.403 313.59H122.178L112.785 337.347C112.154 339.574 112.025 339.685 112.025 340.689C112.025 342.761 112.967 344.544 114.913 345.899C116.927 347.302 120.081 348.267 124.333 348.267H126.833V360.67Z" fill="white" stroke="black" stroke-width="5"/>
<path d="M401.125 215.309L401.318 217.598L406.94 283.939L407.17 286.651H394.738L394.54 284.367C393.506 272.444 392.464 263.043 390.813 255.602C389.162 248.164 386.951 242.927 383.742 239.171C377.394 231.742 366.352 229.202 344.036 229.202C341.219 229.202 337.847 229.202 334.775 229.274C331.677 229.347 329.078 229.492 327.658 229.739C326.661 229.967 326.083 230.291 325.723 230.602C325.367 230.909 325.087 231.323 324.869 231.953C324.371 233.393 324.34 235.423 324.34 238.545V393.995C324.34 396.618 324.358 398.399 324.74 399.818C325.066 401.03 325.65 401.937 326.998 402.733C328.498 403.62 331.006 404.4 335.266 404.933C339.486 405.46 345.195 405.719 352.93 405.719H367.273V420.079L364.59 419.882C352.557 419 322.191 418.998 308.507 418.998C294.825 418.998 265.041 419 253.023 419.882L250.34 420.079V405.719H264.683C272.418 405.719 278.128 405.46 282.347 404.933C286.607 404.4 289.115 403.62 290.615 402.733C291.963 401.937 292.546 401.031 292.873 399.818C293.254 398.399 293.273 396.619 293.273 393.995V238.545C293.273 236.811 293.272 235.433 293.183 234.265C293.095 233.096 292.929 232.328 292.698 231.789C292.493 231.312 292.221 230.974 291.774 230.68C291.275 230.351 290.461 230.016 289.09 229.759L289.042 229.749C287.824 229.495 285.385 229.34 282.386 229.263C279.464 229.187 276.24 229.187 273.577 229.187C251.105 229.187 239.987 231.732 233.604 239.166C230.379 242.923 228.159 248.159 226.503 255.595C224.847 263.035 223.803 272.432 222.766 284.353L222.568 286.636H210.455L210.671 283.936L216.001 217.608L216.187 215.309H401.125Z" fill="white" stroke="black" stroke-width="5"/>
<path d="M543.156 281.045L543.431 283.234L551.726 349.562L552.077 352.372H539.628L539.373 350.158C536.99 329.495 533.908 315.929 526.321 307.384C518.881 299.004 506.578 294.939 484.101 294.938H446.206C442.754 294.938 440.283 295.069 438.489 295.377C436.689 295.686 435.856 296.129 435.42 296.53C435.028 296.89 434.684 297.466 434.464 298.727C434.234 300.046 434.189 301.791 434.189 304.267V372.532H458.049C472.365 372.532 479.253 370.193 482.868 365.728C484.703 363.462 485.894 360.416 486.607 356.252C487.324 352.074 487.529 346.959 487.529 340.687V338.187H499.934V421.356H487.529V418.856C487.529 412.589 487.324 407.456 486.607 403.249C485.893 399.056 484.699 395.968 482.857 393.662C479.236 389.128 472.346 386.719 458.049 386.719H434.189V462.987C434.189 465.462 434.233 467.209 434.464 468.529C434.684 469.792 435.029 470.371 435.422 470.733C435.859 471.136 436.692 471.581 438.491 471.891C440.284 472.2 442.755 472.33 446.206 472.33H485.299C510.315 472.33 523.729 466.987 531.982 456.789C540.447 446.33 543.942 430.312 547.668 407.517L548.011 405.42H556.504L561.274 400.649L560.021 408.308L547.58 484.404L547.237 486.501H372.647V472.33H381.968C387.631 472.33 391.8 472.126 394.882 471.681C397.994 471.23 399.739 470.566 400.758 469.837C401.658 469.193 402.167 468.374 402.475 467.028C402.813 465.547 402.861 463.633 402.861 460.914V306.34C402.861 303.621 402.813 301.707 402.475 300.226C402.167 298.88 401.658 298.061 400.758 297.417C399.739 296.688 397.994 296.024 394.882 295.573C391.8 295.127 387.631 294.924 381.968 294.924H372.647V281.045H543.156Z" fill="white" stroke="black" stroke-width="5"/>
<path d="M608.298 419.888H532.823V405.718H535.323C549.729 405.718 558.866 402.411 564.841 398.562C570.812 394.717 573.828 390.215 575.896 387.258L623.22 317.296L569.982 236.693L569.492 235.988C567.047 232.561 564.694 230.572 561.394 229.334C557.705 227.95 552.625 227.42 544.509 227.42H536.387V213.404L539.02 213.545C549.911 214.125 568.219 214.432 577.381 214.432C588.687 214.432 610.155 214.429 620.093 213.551L622.813 213.311V227.361L620.372 227.419C614.459 227.558 610.13 228.822 607.369 230.331C605.985 231.087 605.055 231.871 604.499 232.546C603.996 233.155 603.881 233.566 603.861 233.74C603.871 233.778 603.894 233.865 603.946 234.008C604.044 234.275 604.196 234.607 604.389 234.979C604.775 235.72 605.237 236.447 605.495 236.825L605.513 236.851L641.345 290.621L672.997 243.979C674.118 242.22 674.61 241.515 674.917 240.821C675.136 240.327 675.262 239.819 675.262 238.544C675.261 233.596 670.412 227.706 659.326 227.419L656.891 227.355V213.541H732.365V227.392L729.893 227.419C717.006 227.562 708.329 229.947 702.189 233.293C696.074 236.626 692.281 241.019 689.314 245.538L689.287 245.579L649.669 303.406L710.936 396.176C713.828 400.434 716.543 402.679 720.164 403.972C723.967 405.329 728.973 405.718 736.686 405.718H744.808V420.008L742.19 419.885C729.789 419.303 716.218 418.997 703.813 418.997C692.803 418.997 671.328 419 661.095 419.879L658.381 420.112V405.774L660.823 405.718C666.891 405.579 671.294 404.311 674.09 402.799C675.491 402.041 676.427 401.256 676.985 400.582C677.451 400.019 677.582 399.624 677.615 399.427C677.578 399.332 677.514 399.191 677.404 398.986C677.279 398.752 677.137 398.511 676.957 398.198C676.813 397.948 676.649 397.658 676.49 397.354L631.847 330.089L592.227 388.819L591.49 389.98C589.955 392.409 589.649 393.01 589.649 394.593C589.649 398.306 593.33 405.435 605.854 405.718L608.298 405.773V419.888Z" fill="white" stroke="black" stroke-width="5"/>
<mask id="mask0_35_195" style="mask-type:luminance" maskUnits="userSpaceOnUse" x="1399" y="193" width="293" height="292">
<path d="M1606.77 483.244C1611.39 485.042 1616.65 484.926 1621.31 482.685L1681.63 453.659C1687.97 450.609 1692 444.192 1692 437.155V240.335C1692 233.298 1687.97 226.882 1681.63 223.832L1621.31 194.805C1615.19 191.863 1608.04 192.584 1602.68 196.484C1601.91 197.041 1601.18 197.663 1600.49 198.349L1485.01 303.706L1434.71 265.523C1430.03 261.968 1423.48 262.259 1419.13 266.215L1402.99 280.891C1397.67 285.73 1397.67 294.099 1402.98 298.946L1446.6 338.744L1402.98 378.543C1397.67 383.39 1397.67 391.759 1402.99 396.598L1419.13 411.273C1423.48 415.23 1430.03 415.521 1434.71 411.967L1485.01 373.783L1600.49 479.141C1602.32 480.968 1604.47 482.345 1606.77 483.244ZM1618.79 272.23L1531.17 338.744L1618.79 405.259V272.23Z" fill="white"/>
</mask>
<g mask="url(#mask0_35_195)">
<path d="M1681.81 223.877L1621.44 194.809C1614.45 191.445 1606.1 192.864 1600.62 198.348L1402.98 378.543C1397.67 383.39 1397.67 391.759 1403 396.598L1419.14 411.273C1423.49 415.23 1430.04 415.52 1434.73 411.967L1672.73 231.418C1680.71 225.361 1692.18 231.055 1692.18 241.077V240.376C1692.18 233.342 1688.15 226.929 1681.81 223.877Z" fill="#0065A9"/>
</g>
<mask id="mask1_35_195" style="mask-type:luminance" maskUnits="userSpaceOnUse" x="1399" y="193" width="293" height="292">
<path d="M1606.77 483.244C1611.39 485.042 1616.65 484.926 1621.31 482.685L1681.63 453.659C1687.97 450.609 1692 444.192 1692 437.155V240.335C1692 233.298 1687.97 226.882 1681.63 223.832L1621.31 194.805C1615.19 191.863 1608.04 192.584 1602.68 196.484C1601.91 197.041 1601.18 197.663 1600.49 198.349L1485.01 303.706L1434.71 265.523C1430.03 261.968 1423.48 262.259 1419.13 266.215L1402.99 280.891C1397.67 285.73 1397.67 294.099 1402.98 298.946L1446.6 338.744L1402.98 378.543C1397.67 383.39 1397.67 391.759 1402.99 396.598L1419.13 411.273C1423.48 415.23 1430.03 415.521 1434.71 411.967L1485.01 373.783L1600.49 479.141C1602.32 480.968 1604.47 482.345 1606.77 483.244ZM1618.79 272.23L1531.17 338.744L1618.79 405.259V272.23Z" fill="white"/>
</mask>
<g mask="url(#mask1_35_195)">
<path d="M1681.81 453.611L1621.44 482.678C1614.45 486.042 1606.1 484.623 1600.62 479.139L1402.98 298.945C1397.67 294.098 1397.67 285.729 1403 280.89L1419.14 266.214C1423.49 262.258 1430.04 261.967 1434.73 265.521L1672.73 446.069C1680.71 452.126 1692.18 446.432 1692.18 436.409V437.111C1692.18 444.145 1688.15 450.558 1681.81 453.611Z" fill="#007ACC"/>
</g>
<mask id="mask2_35_195" style="mask-type:luminance" maskUnits="userSpaceOnUse" x="1399" y="193" width="293" height="292">
<path d="M1606.77 483.244C1611.39 485.042 1616.65 484.926 1621.31 482.685L1681.63 453.659C1687.97 450.609 1692 444.192 1692 437.155V240.335C1692 233.298 1687.97 226.882 1681.63 223.832L1621.31 194.805C1615.19 191.863 1608.04 192.584 1602.68 196.484C1601.91 197.041 1601.18 197.663 1600.49 198.349L1485.01 303.706L1434.71 265.523C1430.03 261.968 1423.48 262.259 1419.13 266.215L1402.99 280.891C1397.67 285.73 1397.67 294.099 1402.98 298.946L1446.6 338.744L1402.98 378.543C1397.67 383.39 1397.67 391.759 1402.99 396.598L1419.13 411.273C1423.48 415.23 1430.03 415.521 1434.71 411.967L1485.01 373.783L1600.49 479.141C1602.32 480.968 1604.47 482.345 1606.77 483.244ZM1618.79 272.23L1531.17 338.744L1618.79 405.259V272.23Z" fill="white"/>
</mask>
<g mask="url(#mask2_35_195)">
<path d="M1621.25 482.702C1614.26 486.064 1605.91 484.643 1600.42 479.159C1607.18 485.916 1618.74 481.129 1618.74 471.573V205.952C1618.74 196.395 1607.18 191.609 1600.42 198.366C1605.91 192.882 1614.26 191.461 1621.25 194.822L1681.61 223.85C1687.95 226.9 1691.99 233.315 1691.99 240.353V437.173C1691.99 444.21 1687.95 450.625 1681.61 453.676L1621.25 482.702Z" fill="#1F9CF0"/>
</g>
</svg>
